<svg xmlns="http://www.w3.org/2000/svg" viewBox="0 0 32 32"><path d="M14.59 22.42a1 1 0 1 0 1 1 1 1 0 0 0-1-1Zm0 1Zm-4-1a1 1 0 1 0 1 1 1 1 0 0 0-1-1Zm0 1Zm8-1a1 1 0 1 0 1 1 1 1 0 0 0-1-1Zm0 1Zm5.25-14.84h-2.25V7.17a2.5 2.5 0 0 0-2.5-2.5h-4V3.5h1.67a.5.5 0 0 0 0-1h-4.34a.5.5 0 0 0 0 1h1.67v1.17h-4a2.5 2.5 0 0 0-2.47 2.16H6.43A.77.77 0 0 0 5.79 8l1.52 2.28a1.72 1.72 0 0 1 .28.93v15.42L6 28.18a.78.78 0 0 0 .55 1.32h16a.78.78 0 0 0 .72-.47.79.79 0 0 0-.17-.85l-1.56-1.55v-2.55h2.25a2.5 2.5 0 0 0 2.5-2.5v-10.5a2.51 2.51 0 0 0-2.45-2.5ZM20.59 10v9.5h-1.17v-1.42a.75.75 0 0 0-.75-.75h-3.58V10Zm-2.17 8.33v1.17h-7.66v-1.17Zm-4.33-1h-3.58a.75.75 0 0 0-.75.75v1.42H8.59v-8.26A2.65 2.65 0 0 0 8.28 10h5.81Zm-5.5 3.17h12v5.83h-12Zm13-8.75h1.58v9.17h-1.58Zm-11.5-6.08h9a1.5 1.5 0 0 1 1.46 1.16H8.63a1.5 1.5 0 0 1 1.46-1.16Zm-2 2.16h12.5V9H7.64l-.78-1.17Zm-1 20.67 1.21-1.17h12.58l1.17 1.17Zm18.21-6.92a1.5 1.5 0 0 1-1.5 1.5h-2.21v-1.16h1.7a.88.88 0 0 0 .88-.89v-9.4a.88.88 0 0 0-.88-.88h-1.7V9.58h2.25a1.5 1.5 0 0 1 1.5 1.5Z"/></svg>
