<svg xmlns="http://www.w3.org/2000/svg" viewBox="0 0 23 23.54"><path d="M20.91 21.49c0 .57-.23 1.08-.6 1.46-.37.36-.88.59-1.45.59H2.04c-.56 0-1.07-.23-1.45-.59l-.02-.04c-.36-.37-.57-.86-.57-1.42 0-.24.19-.44.44-.44h1.72c-.22-.32-.34-.72-.34-1.13v-1.34c0-.55.22-1.06.59-1.42.13-.13.26-.24.42-.33-.05-.22-.09-.43-.13-.66-.05-.31-.06-.63-.06-.96V8.93c0-.24.19-.44.44-.44h14.74c.26 0 .46.2.46.44v.64c.04-.01.09-.01.12-.02h.02c.21-.04.43-.05.64-.05 1.08 0 2.07.44 2.79 1.15.7.7 1.15 1.69 1.15 2.77a3.94 3.94 0 0 1-3.94 3.94c-.25 0-.52-.03-.77-.08-.1-.02-.21-.05-.31-.09a6.778 6.778 0 0 1-1.68 2.78c-.42.41-.9.78-1.42 1.08h5.58c.25 0 .45.2.45.44zm-7.63-18.4c.18-.18.46-.18.63 0 .18.18.17.45 0 .63-.06.05-.11.1-.17.15-.07.05-.13.1-.19.14-.2.14-.38.32-.49.53-.12.21-.18.45-.18.69 0 .26-.19.46-.44.46-.24 0-.44-.2-.44-.46 0-.39.1-.76.27-1.11.19-.34.46-.64.79-.85h.01c.04-.03.07-.05.11-.09a.45.45 0 0 0 .1-.09zm1.33-1.16c.01.25-.18.45-.43.47a.452.452 0 0 1-.46-.43c-.01-.23-.07-.46-.18-.66a1.6 1.6 0 0 0-.48-.49.443.443 0 0 1-.13-.62c.14-.2.42-.26.62-.12.31.2.57.47.75.8.18.32.3.67.31 1.05zm-2.85.11c0 .39-.1.79-.28 1.13-.19.34-.45.63-.78.84-.21.14-.38.32-.5.53a1.52 1.52 0 0 0 0 1.4c.12.2.29.39.5.53.2.13.26.4.12.61-.14.21-.4.26-.62.14-.32-.23-.59-.52-.78-.86a2.51 2.51 0 0 1-.27-1.13c0-.39.1-.76.27-1.11.19-.34.46-.64.78-.85.22-.14.38-.32.5-.53.11-.2.17-.44.17-.7 0-.25-.06-.49-.17-.69-.12-.21-.28-.39-.5-.53a.45.45 0 0 1-.12-.62c.14-.2.41-.26.62-.12.33.21.59.5.78.84.18.34.28.73.28 1.12zm-3.74 0c0-.24.2-.44.44-.44.26 0 .45.2.45.44 0 .39-.11.79-.28 1.13-.19.34-.46.63-.78.84-.22.14-.38.32-.5.53a1.52 1.52 0 0 0 0 1.4c.12.2.28.39.5.53.2.13.26.4.12.61-.14.21-.4.26-.62.14-.32-.23-.59-.52-.78-.86-.17-.34-.28-.72-.28-1.13 0-.39.11-.76.28-1.11.19-.34.46-.64.78-.85.22-.14.38-.32.5-.53.11-.2.17-.44.17-.7zM8.16.32c.18.17.19.45.03.63-.18.17-.46.19-.63.02a.26.26 0 0 0-.1-.07.313.313 0 0 0-.11-.08.45.45 0 0 1-.12-.62c.14-.2.41-.26.62-.12.05.02.1.06.16.11.05.05.1.09.15.13zm10.19 11.97c-.02.01-.05.02-.07.03v2.89c0 .38-.04.76-.1 1.12.1.03.19.06.29.07.2.04.39.06.59.06.84 0 1.6-.34 2.16-.88.54-.56.88-1.31.88-2.16a3.04 3.04 0 0 0-3.53-3l-.01.01c-.11.01-.19.04-.28.06v.85c.05-.03.11-.05.17-.06.21-.05.41-.09.61-.09.62 0 1.17.25 1.58.65l.02.03c.39.4.63.96.63 1.55 0 .48-.15.92-.4 1.29l-.03.04c-.26.35-.63.63-1.06.78a.448.448 0 0 1-.56-.28c-.08-.23.03-.48.27-.55.26-.11.48-.27.63-.48l.02-.02c.16-.22.25-.49.25-.78 0-.36-.15-.68-.38-.93l-.01-.01c-.25-.24-.58-.4-.96-.4-.13 0-.24.02-.37.05-.11.04-.22.09-.34.16zm-3.48-.34a.446.446 0 1 1 0-.89h1.04c.24 0 .44.2.44.44 0 .26-.2.45-.44.45h-1.04zm-11.35-.89h9.56c.25 0 .44.2.44.44 0 .26-.19.45-.44.45H3.52v3.26c0 .29.02.57.06.84.03.17.05.35.1.51h.16c.55 0 1.04.23 1.41.6.29.29.49.65.56 1.08l.81-.81.03-.02c.39-.38.89-.57 1.4-.57.5 0 1.02.2 1.42.59v.02c.39.39.58.89.58 1.41 0 .52-.19 1.03-.59 1.42l-.76.77h2.84c1.62 0 3.07-.65 4.13-1.71a5.837 5.837 0 0 0 1.71-4.13V9.37H3.52v1.69zm5.56 7.38-1.62 1.64c-.18.17-.46.17-.64 0a.453.453 0 0 1 0-.63l1.64-1.64c-.14-.05-.27-.07-.41-.07-.29 0-.57.1-.78.3l-.98.97a1.155 1.155 0 0 0 0 1.6c.22.22.51.33.8.33.28 0 .57-.11.78-.32l.97-.97c.22-.21.33-.5.33-.79a.91.91 0 0 0-.09-.42zM5.5 21.05l-2.12-.98a.45.45 0 0 1 .9 0c0 .25-.21.44-.44.44-.26 0-.46-.19-.46-.44l2.12.98zm-1.22-3.5v1.06a.45.45 0 0 1-.9 0v-1.06c-.13.05-.25.13-.34.24-.21.2-.34.47-.34.79v1.34c0 .3.13.58.32.78l.02.01c.2.22.48.34.8.34.3 0 .57-.12.79-.34.2-.2.33-.48.33-.79v-1.34c0-.32-.13-.59-.33-.79a.998.998 0 0 0-.35-.24zm15.4 4.76c.1-.11.19-.24.25-.37H.97c.06.13.14.25.23.35l.02.02c.22.21.51.34.82.34h16.82c.31 0 .6-.13.82-.34z"/></svg>
