<svg xmlns="http://www.w3.org/2000/svg" viewBox="0 0 64 64"><path d="M61,56H58V28a2,2,0,0,0-2-2H45.444A3.959,3.959,0,0,0,46,24a4,4,0,0,0-4-4H39.94c-.4-3.219-2.7-4.539-4.481-5.4a4.98,4.98,0,0,0-2.582-8.507,7.8,7.8,0,0,0-2.17-3.8,1,1,0,0,0-1.414,1.414,5.947,5.947,0,0,1,1.534,2.447A4.975,4.975,0,0,0,28.549,14.6L24.5,20H22a4,4,0,0,0-4,4,3.959,3.959,0,0,0,.556,2H8a2,2,0,0,0-2,2v4a2,2,0,0,0,2,2V56H3a1,1,0,0,0-1,1v4a1,1,0,0,0,1,1H61a1,1,0,0,0,1-1V57A1,1,0,0,0,61,56ZM32,8a3,3,0,1,1-3,3A3,3,0,0,1,32,8ZM22,22h7a1,1,0,0,0,0-2H27l3.249-4.333a4.642,4.642,0,0,0,3.1.124l.2.1c.2.1.409.2.624.3,1.651.787,3.348,1.6,3.738,3.8H35a1,1,0,0,0,0,2h7a2,2,0,0,1,0,4H22a2,2,0,0,1,0-4ZM8,28H56V56H52V33a1,1,0,0,0-1-1H8ZM47.168,38.555a1,1,0,0,0,1.387.277L50,37.868V43H49a1,1,0,0,0,0,2h1V56H10V51.618l1.447-.723a1,1,0,1,0-.894-1.79L10,49.382V39h1a1,1,0,0,0,0-2H10V34h2.382l.723,1.447a1,1,0,0,0,1.79-.894L14.618,34H30v6a3,3,0,0,0,6,0V34h2v8a4,4,0,0,0,8,0V34h4v1.465l-2.555,1.7A1,1,0,0,0,47.168,38.555ZM32,40V34h2v6a1,1,0,0,1-2,0Zm8,2V34h4v8a2,2,0,0,1-4,0ZM60,60H4V58H60Z"/><path d="M16.707 39.293a1 1 0 00-1.414 0l-3 3a1 1 0 101.414 1.414l3-3A1 1 0 0016.707 39.293zM19 45H17a1 1 0 000 2h2a1 1 0 000-2zM26.707 48.293a1 1 0 00-1.414 1.414l2 2a1 1 0 001.414-1.414zM33 45H31a1 1 0 000 2h2a1 1 0 000-2zM26 41a1 1 0 001-1V38a1 1 0 00-2 0v2A1 1 0 0026 41zM17.553 51.105l-2 1a1 1 0 00.894 1.79l2-1a1 1 0 10-.894-1.79zM43.707 51.293a1 1 0 00-1.414 1.414l2 2a1 1 0 001.414-1.414zM45 47a1 1 0 00-1 1v2a1 1 0 002 0V48A1 1 0 0045 47zM37.553 48.105l-2 1a1 1 0 00.894 1.79l2-1a1 1 0 10-.894-1.79zM35.9 55.447a1 1 0 00-.448-1.342l-2-1a1 1 0 00-.894 1.79l2 1a1 1 0 001.342-.448zM23 35H21a1 1 0 000 2h2a1 1 0 000-2z"/></svg>