<svg xmlns="http://www.w3.org/2000/svg" viewBox="0 0 512 512"><path d="m408.359 30.51-9.3-13.02-56 40a8 8 0 0 0-2.631 3.2L320.708 104H136a8 8 0 0 0-8 8v104c0 .234.011.47.031.7l21.679 245.691A36.649 36.649 0 0 0 186.414 496h123.172a36.649 36.649 0 0 0 36.7-33.609L367.969 216.7a8.23 8.23 0 0 0 .031-.7V112a8 8 0 0 0-8-8h-21.711L354.1 69.265ZM320 162.37v43.26A10.382 10.382 0 0 1 309.63 216h-43.26A10.382 10.382 0 0 1 256 205.63v-43.26A10.382 10.382 0 0 1 266.37 152h43.26A10.382 10.382 0 0 1 320 162.37Zm-18.888 148.716a10.375 10.375 0 0 1-14.657-.493l-29.542-31.6a10.376 10.376 0 0 1 .494-14.657l31.6-29.541a10.289 10.289 0 0 1 7.075-2.795c.119 0 .239 0 .358.006a10.305 10.305 0 0 1 7.227 3.279l29.541 31.6a10.384 10.384 0 0 1-.493 14.658ZM144 120h169.424l-7.285 16H266.37a26.413 26.413 0 0 0-25.216 18.656A26.221 26.221 0 0 0 229.63 152h-43.26A26.4 26.4 0 0 0 160 178.37V184h-16Zm96 58.37v43.26A10.382 10.382 0 0 1 229.63 232h-43.26A10.382 10.382 0 0 1 176 221.63v-43.26A10.382 10.382 0 0 1 186.37 168h43.26A10.382 10.382 0 0 1 240 178.37Zm90.353 282.614A20.737 20.737 0 0 1 309.586 480H186.414a20.737 20.737 0 0 1-20.767-19.016L144 215.647V200h16v21.63A26.4 26.4 0 0 0 186.37 248h43.26a26.413 26.413 0 0 0 25.216-18.656A26.221 26.221 0 0 0 266.37 232h2.2l-22.085 20.645a26.377 26.377 0 0 0-1.256 37.271l29.541 31.6a26.4 26.4 0 0 0 37.272 1.256l31.6-29.541a26.772 26.772 0 0 0 1.664-1.71ZM352 215.647l-3.924 44.477a26.444 26.444 0 0 0-3.18-4.162l-24.539-26.252A26.4 26.4 0 0 0 336 205.63V200h16ZM352 120v64h-16v-21.63a26.39 26.39 0 0 0-13.749-23.147L331 120Z"/><path d="M202.484 184H192v16h10.484a5.523 5.523 0 0 1 5.516 5.516V216h16v-10.484A21.54 21.54 0 0 0 202.484 184zm93.338 66.325-11.687 10.926 7.16 7.659a5.517 5.517 0 0 1-.264 7.8l-7.659 7.16 10.928 11.684 7.659-7.159a21.516 21.516 0 0 0 1.025-30.411zM282.484 168H272v16h10.484a5.523 5.523 0 0 1 5.516 5.516V200h16v-10.484A21.54 21.54 0 0 0 282.484 168z"/></svg>
