<svg xmlns="http://www.w3.org/2000/svg" viewBox="0 0 512 512"><path d="M388.43 14.934c1.702-3.898.968-8.601-2.219-11.796a10.68 10.68 0 0 0-15.093 0 10.457 10.457 0 0 0-2.219 3.289h-.016L324.87 107.57c-3.219-6.789-6.703-13.07-10.405-18.866.016-.055.031-.102.031-.125l-.125-.023c-25.593-40.037-60.653-56.661-79.105-56.661-10.577 0-15.702 5.461-10.405 15.117 5.391 9.835 1.391 15.452-7.047 20.303-3.328-14.124-15.999-24.631-31.139-24.631-.234 0-.453.008-.703.016-10.938-13.023-27.154-18.694-39.904-21.147l-.031-.008h-.016a10.641 10.641 0 0 0-9.547 2.93c-4.171 4.164-4.171 10.921 0 15.085a10.534 10.534 0 0 0 5.531 2.93c9.406 1.805 16.938 4.859 22.53 9.109-6.077 5.82-9.858 14.007-9.858 23.085 0 9.101 3.797 17.304 9.89 23.131-6.968 7.507-12.374 17.194-14.593 30.202h-5.969s-21.326 21.327-21.326 85.323c0 41.146 9.921 126.063 58.48 242.932l-22.936 34.389h-3.547a10.677 10.677 0 0 0-7.547 3.125c-4.156 4.172-4.156 10.922 0 15.078a10.607 10.607 0 0 0 7.547 3.123h170.662a10.57 10.57 0 0 0 7.531-3.123c4.172-4.156 4.172-10.906 0-15.078a10.64 10.64 0 0 0-7.531-3.125h-3.563l-22.92-34.389c48.544-116.869 58.48-201.786 58.48-242.932 0-51.513-13.827-75.378-19.217-82.73l50.325-115.673h-.013zM151.942 157.809c1.219-3.445 2.438-6.25 3.547-8.468h22.201l.031.195c.375-.063.734-.133 1.094-.195h145.711c1.094 2.219 2.313 5.023 3.531 8.468 1.219 3.398 2.5 7.672 3.688 12.867h-183.49c1.187-5.195 2.469-9.468 3.687-12.867zm126.181-80.511c4.124 4.063 8.468 8.96 12.812 14.812-4.172 9.226-14.562 25.038-39.154 35.904h-23.78c9.499-6.672 18.873-14.773 28.061-24.304 9.562-9.913 17.03-19.444 22.061-26.412zm32.311 50.716h-19.905c5.516-5.156 9.813-10.39 13.125-15.289 2.39 4.704 4.67 9.797 6.78 15.289zM197.347 74.681c0 5.882-4.781 10.663-10.672 10.663s-10.672-4.781-10.672-10.663c0-5.883 4.781-10.671 10.672-10.671s10.672 4.788 10.672 10.671zm-12.782 33.553a58.782 58.782 0 0 1 2.031-1.555h.078c10.734 0 20.232-5.296 26.045-13.406 14.344-6.117 28.905-12.64 34.201-27.896a30.943 30.943 0 0 0 1.672-8.633c3.906 1.664 8.297 3.977 12.953 7.031-12.422 17.382-44.201 56.231-84.652 64.239h-5.141c2.048-8.101 6.095-14.304 12.813-19.78zm-.687 382.424 13.516-20.295a10.635 10.635 0 0 0 3.077 6.498c4.156 4.172 10.905 4.172 15.077 0a10.632 10.632 0 0 0 3.125-7.529 10.63 10.63 0 0 0 3.125 7.529c4.172 4.172 10.922 4.172 15.077 0a10.565 10.565 0 0 0 3.125-7.529c0 2.719 1.047 5.453 3.124 7.529a10.666 10.666 0 0 0 15.094 0 10.632 10.632 0 0 0 3.125-7.529c0 2.719 1.031 5.453 3.125 7.529 4.156 4.172 10.905 4.172 15.076 0 1.813-1.811 2.828-4.123 3.078-6.498l13.516 20.295h-112.26zm140.601-184.193c-9.702 44.998-24.92 92.527-45.278 141.523h-78.387c-20.358-48.996-35.561-96.525-45.278-141.523-10.031-46.395-11.531-78.261-11.531-93.127 0-7.882.359-14.976.953-21.327h190.1c.594 6.351.938 13.444.938 21.327-.001 14.866-1.501 46.732-11.517 93.127z"/><path d="M247.546 237.797c-4.172-4.164-10.921-4.164-15.076 0a10.576 10.576 0 0 0-3.125 7.539v149.328a10.61 10.61 0 0 0 3.125 7.547c4.155 4.154 10.904 4.154 15.076 0a10.677 10.677 0 0 0 3.125-7.547V245.336c0-2.727-1.047-5.461-3.125-7.539zm53.326 0c-4.156-4.164-10.906-4.164-15.078 0a10.58 10.58 0 0 0-3.016 6.031l-21.342 149.32h.016c-.453 3.219.547 6.594 3.016 9.063 4.156 4.154 10.905 4.154 15.076 0 1.703-1.703 2.688-3.844 3.016-6.031l21.344-149.336h-.031a10.588 10.588 0 0 0-3.001-9.047zm-82.309 155.351-21.326-149.32h-.016a10.654 10.654 0 0 0-3-6.031c-4.172-4.164-10.922-4.164-15.094 0a10.581 10.581 0 0 0-3 9.046h-.016l21.327 149.336h.016c.328 2.188 1.313 4.328 3.016 6.031 4.156 4.154 10.905 4.154 15.077 0 2.47-2.468 3.454-5.843 3.016-9.062z"/></svg>