<svg xmlns="http://www.w3.org/2000/svg" viewBox="0 0 64 64"><path d="M46,63H26c-2.1,0-4-1.9-4-4l-4-40.9c0-2.2,1.9-4.1,4-4.1h28c2.1,0,4,1.9,4,4l-4,41.1    C50,61.1,48.1,63,46,63z M22,16c-1,0-2,1-2,2l4,40.9c0,1.1,1,2.1,2,2.1h20c1,0,2-1,2-2l4-41.1c0-0.9-1-1.9-2-1.9H22z"/><path d="M45,60H27c-0.7,0-1.8-0.2-2-1.9l-3-30c-0.1-0.7,0.2-1.2,0.4-1.5c0.3-0.3,0.7-0.6,1.6-0.6h24    c0.8,0,1.3,0.3,1.6,0.6c0.2,0.3,0.5,0.7,0.4,1.5l-3,30C46.8,59.8,45.7,60,45,60z M27,58h18c0,0,0-0.1,0-0.1L48,28H24L27,58    C27,57.9,27,58,27,58z M26.9,58L26.9,58L26.9,58z"/><path d="M38,57h-5c-1.5,0-3-1.4-3-2.9V49c0-1.5,1.5-3,3-3h5c1.5,0,3,1.5,3,3v5C41,55.5,39.5,57,38,57z M33,48    c-0.4,0-1,0.6-1,1v5.1c0,0.3,0.5,0.9,1,0.9h5c0.4,0,1-0.6,1-1v-5c0-0.4-0.6-1-1-1H33z"/><polygon points="30 45.2 22.1 8.7 10.6 2.9 11.4 1.1 23.9 7.3 32 44.8"/><path d="M41 25c-1.7 0-3-1.3-3-3s1.3-3 3-3 3 1.3 3 3S42.7 25 41 25zM41 21c-.6 0-1 .4-1 1s.4 1 1 1 1-.4 1-1S41.6 21 41 21zM34 21c-1.1 0-2-.9-2-2s.9-2 2-2c1.1 0 2 .9 2 2S35.1 21 34 21zM34 19L34 19 34 19zM43 12c-2.2 0-4-1.8-4-4s1.8-4 4-4 4 1.8 4 4S45.2 12 43 12zM43 6c-1.1 0-2 .9-2 2s.9 2 2 2 2-.9 2-2S44.1 6 43 6zM38 43c-.9 0-1.8-.4-2.4-1L33 39.4c-.6-.6-1-1.5-1-2.4 0-.9.4-1.8 1-2.4l2.6-2.6c.6-.6 1.5-1 2.4-1 0 0 0 0 0 0 .9 0 1.8.4 2.4 1l2.6 2.6c.6.6 1 1.5 1 2.4 0 .9-.4 1.8-1 2.4L40.4 42C39.8 42.6 38.9 43 38 43zM38 33L38 33c-.4 0-.7.1-1 .4L34.4 36c-.3.3-.4.6-.4 1 0 .4.1.7.4 1l2.6 2.6c.5.5 1.5.5 2 0l2.6-2.6c.3-.3.4-.6.4-1 0-.4-.1-.7-.4-1L39 33.4C38.7 33.1 38.4 33 38 33z"/></svg>
