<svg xmlns="http://www.w3.org/2000/svg" viewBox="0 0 100 100"><path d="M78.985,49.798c-0.237-0.583-0.963-2.674-1.25-6.911c-0.035-0.508-0.062-1.478-0.08-2.883
	c-0.014-1.102-0.526-2.116-1.406-2.781c-0.88-0.666-1.998-0.882-3.061-0.596l-2.707,0.729c-2.053,0.553-3.526,2.429-3.583,4.562
	c-0.011,0.405-0.017,0.8-0.018,1.186c-0.001,0.519,0.011,1.019,0.028,1.511c-0.155,0.34-0.305,0.686-0.448,1.033
	c-0.592,1.437-1.306,2.804-2.116,4.112l0.586-23.514c0.011-0.424-0.15-0.836-0.447-1.14c-0.296-0.304-0.703-0.476-1.128-0.476H62.79
	l3.976-13.593c0.14-0.476,0.047-0.991-0.251-1.388C66.217,9.253,65.75,9.02,65.253,9.02h-6.422c-0.7,0-1.317,0.462-1.513,1.134
	l-3.282,11.228l-0.123,0.42c-0.001,0,0,0.001-0.001,0.001l-0.827,2.83H28.742c-0.425,0-0.832,0.172-1.129,0.476
	c-0.297,0.304-0.458,0.715-0.447,1.14l0.94,37.69c-1.749-0.234-3.259-0.474-4.297-0.658c-0.399-0.069-0.809,0.015-1.146,0.238
	l-3.05,2.02c-0.381,0.252-0.633,0.657-0.693,1.109l-0.316,2.41c-0.028,0.023-0.059,0.041-0.086,0.065l-1.67,1.497
	c-0.282,0.252-0.464,0.598-0.511,0.973l-0.465,3.571c-0.048,0.377,0.041,0.757,0.251,1.074c0.186,0.278,0.371,0.548,0.568,0.819
	c0.002,0.002,0.003,0.004,0.005,0.007c0,0,0,0,0,0.001l0,0c1.73,2.404,5.442,6.576,11.981,9.728l0.066,2.653
	c0.021,0.855,0.72,1.537,1.576,1.537h0.008H48.77h13.009h0.001c0.855,0,1.554-0.682,1.575-1.537l0.02-0.784
	c8.891-3.201,15.392-9.705,19.399-19.452C86.958,59.03,80.333,51.237,78.985,49.798z M79.859,68.009
	c-3.507,8.53-8.931,14.236-16.398,17.255l0.131-5.19c0-0.007-0.003-0.014-0.003-0.021l0.058-2.331
	c11.628-6.945,11.961-18.986,11.964-19.155c0.008-0.695-0.437-1.282-1.058-1.499c-0.156-0.054-0.32-0.091-0.494-0.094
	c-0.008,0-0.015,0-0.024,0c-0.857,0-1.56,0.69-1.575,1.55c-0.004,0.221-0.059,1.759-0.642,3.901
	c-0.887,3.255-3.01,7.911-8.075,11.523l0.063-2.52l0.04-1.619l0.04-1.619l0.093-3.747c2.872-3.586,4.912-7.748,6.185-11.908
	c0.404,0.133,0.81,0.223,1.205,0.282c0.524,0.079,1.024,0.11,1.437,0.11c0.048,0,0.088-0.002,0.134-0.003
	c0.485-0.007,0.84-0.043,0.954-0.057c0.238-0.029,0.454-0.114,0.645-0.234c0.5-0.316,0.805-0.897,0.728-1.523
	c-0.067-0.549-0.41-0.994-0.871-1.22c-0.266-0.13-0.57-0.19-0.885-0.152c-0.209,0.025-0.47,0.038-0.751,0.035
	c-0.53-0.006-1.126-0.074-1.595-0.222c-0.2-0.063-0.375-0.14-0.509-0.236c-0.153-0.684-0.273-1.392-0.368-2.12l0.58-0.27l1.484-0.69
	l0.426-0.199h1.163h0.948c0.5,3.639,1.278,5.199,1.383,5.398c0.075,0.142,0.172,0.271,0.286,0.384
	C76.626,51.889,83.605,58.897,79.859,68.009z M20.955,77.306l1.655-0.233c0.372-0.052,0.693-0.245,0.936-0.511
	c0.829,0.488,2.582,1.466,4.937,2.492l0.104,4.159C25.09,81.305,22.613,79.123,20.955,77.306z M21.953,67.769l1.93-1.278
	c0.064,0.011,0.139,0.023,0.212,0.035l0.399,1.248l-0.738,1.003c-0.286-0.19-0.627-0.279-0.968-0.26l-0.725,0.046
	c-0.075,0.004-0.144,0.009-0.216,0.013L21.953,67.769z M60.864,19.98l-3.251,0.404l0.943-3.221l3.251-0.404L60.864,19.98z
	 M60.013,12.172h3.136l-0.377,1.29l-3.254,0.404L60.013,12.172z M56.649,23.68l3.253-0.404l-0.396,1.356H56.37L56.649,23.68z
	 M19.354,72.832l0.033-0.256l0.825-0.739c0.14-0.008,0.274-0.017,0.405-0.024c0.11-0.007,0.226-0.014,0.333-0.02
	c0.076-0.005,0.155-0.01,0.231-0.014c0.102-0.007,0.211-0.013,0.313-0.02c0.093-0.006,0.185-0.011,0.279-0.018l-0.096,0.356
	l-0.413,1.536l-0.125,0.465l-1.987,0.279L19.354,72.832z M30.358,27.784h21.806l-1.6,5.469c-0.002,0.005-0.001,0.01-0.003,0.015
	l-1.071,3.666H30.586L30.358,27.784z M54.263,31.834l0.943-3.221h0l3.25-0.404l-0.943,3.221l-3.249,0.404H54.263z M31.643,79.293
	l-0.034-1.339l-0.026-1.06l-0.017-0.653l-0.043-1.727l-0.006-0.231l-0.04-1.605l-0.04-1.604l-0.089-3.571l-0.04-1.59l-0.04-1.593
	l-0.604-24.234h17.903h1.642h1.643h3.132h1.641h1.643h3.162l-0.349,13.983l-0.059,2.358l-0.054,2.184l-0.118,4.728l-0.059,2.377
	l-0.054,2.181l-0.024,0.958l-0.04,1.619l-0.041,1.619l-0.094,3.769l-0.087,3.499l-0.001,0.044c-0.537,0.518-1.742,1.464-3.409,1.464
	H56.24H35.622C33.882,80.869,32.36,79.859,31.643,79.293z M55.906,36.933h-3.132l0.527-1.802l3.25-0.404L55.906,36.933z
	 M61.511,36.933h-2.319l2.535-8.668L61.511,36.933z M24.611,73.326l0.158-0.587c1.048,0.388,2.241,0.724,3.582,1.007l0.029,1.159
	l0.015,0.625c-2.247-1.058-3.651-1.928-3.687-1.95c-0.047-0.03-0.097-0.048-0.146-0.073L24.611,73.326z M31.828,86.461l-0.043-1.724
	l-0.042-1.675c1.076,0.528,2.405,0.959,3.879,0.959h21.42c1.287,0,2.4-0.325,3.313-0.762c0-0.001,0.002-0.001,0.003-0.001
	L60.28,86.36l-0.037,1.468h-0.001H35.996h-4.133L31.828,86.461z M74.178,39.67c0.017,0.003,0.035,0.004,0.051,0.009
	c0.047,0.015,0.089,0.036,0.119,0.059c0.069,0.053,0.153,0.149,0.155,0.309c0.003,0.235,0.006,0.454,0.01,0.665
	c0.001,0.062,0.002,0.122,0.003,0.181c0.003,0.149,0.006,0.29,0.008,0.426c0.001,0.061,0.003,0.124,0.004,0.182
	c0.004,0.166,0.008,0.321,0.013,0.467c0.001,0.049,0.003,0.095,0.004,0.141c0.004,0.129,0.008,0.254,0.013,0.367
	c0.001,0.011,0.001,0.025,0.001,0.035l-0.278,0.374h-1.208h-0.646c-0.229,0-0.457,0.05-0.665,0.147l-0.286,0.133l-1.435,0.668
	l-0.003,0.002c-0.001-0.062,0.002-0.13,0.001-0.193c-0.003-0.313,0.002-0.643,0.006-0.97c0.003-0.225-0.002-0.436,0.004-0.668
	c0.012-0.429,0.188-0.825,0.467-1.124c0.21-0.225,0.476-0.397,0.784-0.48l2.708-0.729c0.037-0.01,0.074-0.014,0.107-0.014
	C74.138,39.658,74.156,39.666,74.178,39.67z M67.37,50.853c-0.561,1.968-1.564,4.822-3.248,7.798l0.084-3.34
	C65.393,53.914,66.445,52.424,67.37,50.853z M28.269,70.481c-0.575-0.137-1.09-0.277-1.546-0.418l0.787-1.071
	c0.299-0.407,0.385-0.933,0.232-1.414l-0.17-0.533c0.2,0.027,0.405,0.055,0.614,0.082L28.269,70.481z M34.072,45.705
	c-0.292-0.292-0.465-0.694-0.465-1.112c0-0.417,0.173-0.827,0.465-1.119c0.362-0.362,0.907-0.528,1.418-0.426
	c0.102,0.016,0.205,0.047,0.299,0.087c0.095,0.039,0.182,0.087,0.268,0.15c0.087,0.055,0.167,0.118,0.245,0.189
	c0.292,0.299,0.458,0.701,0.458,1.119c0,0.418-0.165,0.82-0.458,1.112c-0.078,0.079-0.157,0.142-0.245,0.197
	c-0.086,0.055-0.173,0.111-0.268,0.15c-0.095,0.04-0.197,0.063-0.299,0.087c-0.095,0.024-0.205,0.031-0.307,0.031
	C34.773,46.169,34.364,46.004,34.072,45.705z M43.363,52.215c0.095,0.039,0.181,0.086,0.268,0.15
	c0.087,0.055,0.166,0.118,0.236,0.197c0.079,0.071,0.142,0.15,0.197,0.236c0.063,0.086,0.111,0.173,0.15,0.268
	c0.039,0.103,0.07,0.197,0.087,0.3c0.023,0.102,0.031,0.205,0.031,0.307c0,0.41-0.166,0.819-0.465,1.111
	c-0.292,0.299-0.694,0.465-1.111,0.465c-0.417,0-0.827-0.166-1.111-0.465c-0.3-0.292-0.466-0.702-0.466-1.111
	c0-0.102,0.009-0.205,0.032-0.307c0.016-0.103,0.047-0.197,0.087-0.3c0.039-0.095,0.087-0.181,0.15-0.268
	c0.055-0.087,0.118-0.166,0.197-0.236c0.07-0.079,0.149-0.142,0.236-0.197c0.086-0.063,0.173-0.111,0.268-0.15
	c0.102-0.04,0.197-0.071,0.3-0.087c0.205-0.04,0.41-0.04,0.615,0C43.167,52.144,43.261,52.175,43.363,52.215z M36.625,66.408
	c-0.111,0-0.213-0.008-0.316-0.032c-0.075-0.019-0.154-0.042-0.232-0.069c-0.02-0.007-0.04-0.01-0.059-0.018
	c-0.095-0.04-0.189-0.087-0.276-0.15c-0.087-0.055-0.166-0.119-0.236-0.197c-0.071-0.071-0.142-0.15-0.197-0.236
	c-0.055-0.086-0.102-0.173-0.143-0.276c-0.039-0.094-0.07-0.189-0.095-0.291c-0.015-0.103-0.031-0.205-0.031-0.307
	c0-0.058,0.011-0.115,0.018-0.172c0.041-0.354,0.196-0.688,0.448-0.939c0.362-0.37,0.914-0.536,1.426-0.433
	c0.095,0.023,0.197,0.047,0.292,0.086c0.095,0.04,0.189,0.095,0.268,0.15c0.087,0.056,0.173,0.119,0.245,0.197
	c0.07,0.071,0.134,0.15,0.197,0.237c0.054,0.086,0.102,0.173,0.141,0.275c0.04,0.095,0.071,0.189,0.095,0.292
	c0.014,0.094,0.02,0.188,0.021,0.282c0,0.008,0.002,0.017,0.002,0.025c0,0.417-0.166,0.82-0.457,1.111
	c-0.072,0.079-0.158,0.142-0.245,0.197c-0.079,0.063-0.173,0.11-0.268,0.15c-0.068,0.028-0.139,0.044-0.208,0.062
	c-0.028,0.007-0.056,0.018-0.084,0.025C36.83,66.4,36.728,66.408,36.625,66.408z M44.23,73.921c0.064,0.174,0.102,0.357,0.102,0.541
	c0,0.114-0.015,0.227-0.039,0.337c-0.064,0.292-0.208,0.564-0.426,0.783c-0.013,0.012-0.029,0.023-0.042,0.035
	c-0.06,0.056-0.123,0.11-0.194,0.162c-0.087,0.055-0.173,0.102-0.268,0.141c-0.102,0.04-0.197,0.071-0.299,0.087
	c-0.102,0.024-0.205,0.032-0.308,0.032c-0.102,0-0.205-0.008-0.307-0.032c-0.07-0.01-0.136-0.036-0.204-0.059
	c-0.032-0.011-0.063-0.015-0.096-0.028c-0.095-0.039-0.182-0.086-0.268-0.141c-0.087-0.063-0.166-0.126-0.236-0.197
	c-0.198-0.199-0.331-0.443-0.403-0.706c-0.029-0.104-0.046-0.21-0.053-0.317c-0.002-0.032-0.009-0.064-0.009-0.096
	c0-0.41,0.166-0.819,0.466-1.112c0.018-0.018,0.04-0.031,0.058-0.048c0.056-0.053,0.112-0.107,0.178-0.148
	c0.086-0.055,0.173-0.102,0.268-0.142c0.102-0.039,0.197-0.071,0.3-0.095c0.205-0.04,0.41-0.04,0.615,0
	c0.102,0.024,0.197,0.056,0.299,0.095c0.095,0.04,0.181,0.087,0.268,0.142c0.045,0.029,0.081,0.067,0.122,0.101
	c0.038,0.033,0.08,0.062,0.115,0.096C44.032,73.511,44.152,73.709,44.23,73.921z M39.25,75.297c0.291,0.292,0.465,0.694,0.465,1.112
	c0,0.024-0.006,0.047-0.007,0.071c-0.005,0.079-0.013,0.158-0.024,0.237c-0.024,0.102-0.048,0.197-0.095,0.299
	c-0.039,0.095-0.087,0.182-0.141,0.268c-0.056,0.087-0.126,0.166-0.197,0.237c-0.071,0.079-0.15,0.142-0.237,0.198
	c-0.086,0.063-0.181,0.11-0.276,0.15c-0.095,0.039-0.189,0.07-0.292,0.086c-0.102,0.024-0.205,0.032-0.307,0.032
	c-0.102,0-0.205-0.008-0.308-0.032c-0.102-0.016-0.205-0.047-0.299-0.086c-0.095-0.039-0.181-0.087-0.268-0.15
	c-0.086-0.056-0.166-0.118-0.244-0.198c-0.122-0.118-0.216-0.262-0.291-0.416c-0.104-0.215-0.167-0.451-0.167-0.695
	c0-0.346,0.119-0.678,0.324-0.948c0.042-0.056,0.084-0.113,0.134-0.163c0.078-0.078,0.157-0.141,0.244-0.197
	c0.087-0.055,0.173-0.11,0.268-0.15c0.095-0.039,0.197-0.063,0.299-0.086c0.362-0.074,0.746-0.004,1.069,0.174
	C39.027,75.109,39.147,75.192,39.25,75.297z M35.49,55.997c-0.292,0.292-0.694,0.458-1.111,0.458c-0.102,0-0.205-0.008-0.307-0.032
	c-0.102-0.016-0.197-0.047-0.292-0.086c-0.095-0.04-0.189-0.087-0.276-0.15c-0.087-0.055-0.166-0.118-0.236-0.189
	c-0.3-0.299-0.465-0.701-0.465-1.119c0-0.102,0.008-0.205,0.031-0.307c0.024-0.102,0.048-0.197,0.087-0.292
	c0.04-0.094,0.095-0.189,0.15-0.276c0.055-0.087,0.125-0.166,0.197-0.236c0.071-0.079,0.15-0.142,0.236-0.197
	c0.086-0.055,0.181-0.111,0.276-0.15c0.095-0.039,0.189-0.063,0.292-0.087c0.205-0.04,0.41-0.04,0.615,0
	c0.102,0.024,0.197,0.048,0.3,0.087c0.095,0.039,0.18,0.095,0.268,0.15c0.087,0.055,0.165,0.118,0.236,0.197
	c0.079,0.071,0.142,0.15,0.197,0.236c0.063,0.087,0.111,0.181,0.15,0.276c0.04,0.095,0.071,0.19,0.086,0.292
	c0.024,0.102,0.031,0.205,0.031,0.307C35.955,55.296,35.789,55.698,35.49,55.997z M45.522,65.487
	c0.14,0.239,0.221,0.512,0.221,0.794c0,0.103-0.008,0.205-0.023,0.307c-0.024,0.102-0.056,0.198-0.095,0.292
	c-0.037,0.091-0.084,0.182-0.136,0.266c-0.002,0.003-0.003,0.007-0.006,0.01c-0.056,0.087-0.126,0.166-0.197,0.236
	c-0.292,0.299-0.694,0.465-1.111,0.465c-0.102,0-0.205-0.008-0.308-0.031c-0.103-0.016-0.205-0.047-0.3-0.087
	c-0.047-0.019-0.089-0.049-0.133-0.074c-0.044-0.025-0.091-0.044-0.135-0.075c-0.087-0.055-0.165-0.118-0.244-0.197
	c-0.071-0.071-0.134-0.15-0.197-0.236c-0.055-0.087-0.103-0.181-0.142-0.276c-0.04-0.094-0.071-0.189-0.086-0.292
	c-0.024-0.102-0.032-0.205-0.032-0.307c0-0.028,0.007-0.054,0.008-0.081c0.02-0.388,0.177-0.757,0.449-1.03
	c0.37-0.371,0.914-0.536,1.426-0.433c0.102,0.016,0.197,0.047,0.292,0.087c0.095,0.039,0.189,0.086,0.276,0.15
	c0.087,0.055,0.165,0.118,0.237,0.197C45.381,65.264,45.456,65.373,45.522,65.487z M41.889,45.051c-0.409,0-0.819-0.166-1.111-0.458
	c-0.071-0.07-0.142-0.157-0.197-0.244c-0.055-0.079-0.103-0.173-0.142-0.268c-0.039-0.095-0.071-0.197-0.095-0.299
	c-0.015-0.095-0.031-0.205-0.031-0.308c0-0.41,0.173-0.819,0.465-1.111c0.362-0.371,0.906-0.536,1.418-0.434
	c0.103,0.024,0.205,0.055,0.3,0.095c0.094,0.04,0.181,0.087,0.268,0.142c0.086,0.055,0.173,0.125,0.244,0.197
	c0.292,0.292,0.465,0.701,0.465,1.111c0,0.102-0.015,0.213-0.031,0.308c-0.023,0.102-0.055,0.205-0.095,0.299
	s-0.086,0.189-0.142,0.268c-0.063,0.087-0.126,0.174-0.197,0.244c-0.071,0.071-0.158,0.135-0.244,0.197
	c-0.087,0.055-0.174,0.102-0.268,0.142c-0.095,0.039-0.197,0.071-0.3,0.095C42.095,45.043,41.992,45.051,41.889,45.051z"/></svg>
